<svg width="405" height="667" viewBox="0 0 405 667" fill="none" xmlns="http://www.w3.org/2000/svg">
<path fill-rule="evenodd" clip-rule="evenodd" d="M2.66545 624.11C2.66545 624.11 -5.89455 641.334 7.66545 648.11C19.6785 650.553 22.6655 653.11 22.6655 653.11C22.6655 653.11 29.0265 656.079 29.6655 656.11C30.3045 656.141 40.0195 657.781 42.6655 659.11C45.3115 660.439 53.6655 661.077 54.6655 661.11C55.6655 661.143 59.5605 662.947 60.6655 663.11C61.7705 663.273 67.6805 664.272 71.6655 663.11C75.6505 661.948 83.5735 661.891 88.6655 663.11C96.4345 665.104 104.665 663.11 104.665 663.11C106.697 663.213 108.71 663.549 110.665 664.11C112.672 664.884 123.492 666.21 128.665 666.11C133.838 666.01 156.665 666.11 156.665 666.11C156.665 666.11 176.39 665.487 182.665 666.11C188.94 666.733 203.665 666.11 203.665 666.11C203.665 666.11 210.634 665.635 213.665 664.11C216.696 662.585 220.665 665.11 220.665 665.11L252.665 666.11C252.665 666.11 261.983 664.47 267.665 665.11C271.032 665.504 274.444 665.162 277.665 664.11C277.665 664.11 282.949 663.598 284.665 664.11C286.381 664.622 292.665 663.11 292.665 663.11H297.665C300.381 662.658 303.056 661.989 305.665 661.11C309.195 659.827 313.665 662.11 313.665 662.11C313.665 662.11 321.254 661.802 324.665 660.11C329.697 659.334 336.665 661.11 336.665 661.11C340.288 661.918 344.043 661.918 347.665 661.11C351.281 660.354 354.972 660.018 358.665 660.11C358.665 660.11 364.951 658.237 368.665 658.11C372.379 657.983 378.665 655.11 378.665 655.11C382.283 654.262 386.048 654.262 389.665 655.11C395.911 656.503 407.32 652.144 403.665 641.11C401.838 634.603 401.496 627.768 402.665 621.11C402.665 621.11 402.218 595.996 397.665 581.11C393.112 566.224 387.665 536.11 387.665 536.11C387.665 536.11 379.879 506.99 377.665 495.11C375.451 483.23 370.943 462.563 367.665 448.11C364.264 434.165 359.921 420.467 354.665 407.11C351.011 396.377 336.665 366.11 336.665 366.11C334.992 360.695 332.022 355.77 328.014 351.762C324.006 347.754 319.081 344.784 313.665 343.11V341.11C313.665 341.11 320.872 334.98 318.665 317.11C317.799 307.183 322.665 285.11 322.665 285.11V210.11C322.665 210.11 321.322 206.652 323.665 204.11C325.687 199.454 335.665 174.11 335.665 174.11L346.665 146.11C346.665 146.11 358.826 117.11 358.665 99.1103C358.15 77.6549 349.994 57.0879 335.665 41.1103C315.887 19.3593 280.481 2.9533 227.665 0.1103C172.282 -1.6757 138.638 18.6263 118.665 32.1103C98.6925 45.5943 79.6655 78.1103 79.6655 78.1103C79.6655 78.1103 61.2855 114.733 79.6655 143.11C86.5655 157.14 92.6655 167.11 92.6655 167.11C92.6655 167.11 99.2535 176.817 99.6655 187.11C100.077 197.403 101.06 209.822 101.665 212.11C102.884 215.933 100.665 225.11 100.665 225.11L93.6655 284.11C93.6655 284.11 91.4175 297.081 91.6655 306.11C89.8875 310.318 88.4705 319.137 87.6655 329.11C88.027 333.485 88.6953 337.829 89.6655 342.11C89.6655 342.11 89.8195 348.538 88.6655 351.11C87.5115 353.682 83.6655 365.11 83.6655 365.11C83.6655 365.11 78.4305 375.358 80.6655 385.11C81.0835 389.901 77.6655 396.11 77.6655 396.11L70.6655 417.11L63.6655 438.11L57.6655 458.11L52.6655 472.11L46.6655 491.11L39.6655 513.11L33.6655 530.11L27.6655 548.11L21.6655 566.11L16.6655 582.11L11.6655 598.11L6.66545 613.11L2.66545 624.11Z" fill="#DDDDDD"/>
</svg>
