<svg width="1080" height="1080" viewBox="0 0 1080 1080" fill="none" xmlns="http://www.w3.org/2000/svg">
<path d="M294.5 915C284.5 909.8 286.334 896.5 288.5 890.5C289.5 888.333 292.1 881.8 294.5 873C296.901 864.2 305.834 837 310 824.5C314.667 811.5 324.7 783.4 327.5 775C330.3 766.6 337.333 742.5 340.5 731.5C344.833 719.667 353.9 694.2 355.5 687C357.1 679.8 367.833 649.333 373 635C374.333 631.167 376.7 622.3 375.5 617.5C374.3 612.7 380 597.833 383 591C384.167 587.333 386.3 578.6 385.5 573C384.5 566 383 554 386 545C388.4 537.8 390 521.333 390.5 514V504L394.5 479.5C395.167 473.5 396.7 460.6 397.5 457C398.3 453.4 398.5 445.167 398.5 441.5C400.1 436.3 399.833 431 399.5 429.5C398.5 424.333 396.7 411.7 397.5 402.5C397.1 392.9 388.667 379.5 384.5 374C369 345.5 362 328 367.5 305C371.9 286.6 384.333 267.667 390 260.5C391.667 258.833 396.4 253.8 402 247C407.6 240.2 420.333 230.167 426 226C430.833 223.167 444 217 455.5 210.5C467.5 204.9 478.833 202.167 483 201.5C521.4 193.1 552 195 562.5 197C579.833 199.833 619.6 209.2 640 224C666 238.4 679.5 270 683 284C685 292 686.25 297.5 685 315C684 329 675.167 348.833 670.5 363L660.5 387L652.5 408.5L645 425.5C646.6 429.5 646.333 437.833 646 441.5C646 452 646.1 476.1 646.5 488.5C646.9 500.9 645 514 644 519C642.833 527.833 640.6 547.1 641 553.5C643 564.7 637.833 572.833 635 575.5C651.5 582 655.167 589.5 657.5 593.5C661.5 601.667 671.1 622.1 677.5 638.5C685.9 654.9 695.333 690.667 699 706.5L712.5 768C715.833 780.167 723.7 811.4 728.5 839C737 871 733.5 909.5 735.5 901C737.1 894.2 735.833 904.5 735 910.5C735.667 910.167 737 910.4 737 914C736.6 920.4 725.5 923 720 923.5C717.167 923.167 711.1 922.5 709.5 922.5C707.5 922.5 697.5 927.5 694.5 927C692.1 926.6 685.833 928.5 683 929.5C681.333 929.5 676.8 929.7 672 930.5C666 931.5 662 930.5 659 929.5C656.6 928.7 649.333 929.167 646 929.5C644.333 930.167 639.9 931.3 635.5 930.5C631.1 929.7 626.667 930.167 625 930.5C623.167 931.167 618.9 932.5 616.5 932.5C614.1 932.5 610.5 933.167 609 933.5C608.333 934.167 606.2 935.2 603 934C599.8 932.8 592.333 934.167 589 935H571.5C562.5 935.333 542.9 935.7 536.5 934.5C530.1 933.3 523.5 934.333 521 935C517.5 935.667 509.4 936.8 505 936C493.4 935.2 472.5 935.667 463.5 936C449.5 936.167 420.1 936 414.5 934C408.5 931.5 399.5 932.5 395 933.5C391.4 934.3 381.5 933.167 377 932.5C373.167 932.167 373.5 931.7 365.5 932.5C357.5 933.3 354.833 932.833 354.5 932.5C353.5 931.667 350.9 930 348.5 930C346.1 930 337.5 928.333 333.5 927.5L311 922.5C309.667 922.167 304.5 920.2 294.5 915Z" fill="#D9D9D9"/>
</svg>
