<svg width="451" height="741" viewBox="0 0 451 741" fill="none" xmlns="http://www.w3.org/2000/svg">
<path fill-rule="evenodd" clip-rule="evenodd" d="M2.9728 693.99C2.9728 693.99 -6.57425 713.142 8.54935 720.677C21.9476 723.393 25.279 726.237 25.279 726.237C25.279 726.237 32.3735 729.538 33.0862 729.572C33.7988 729.607 44.6341 731.431 47.5852 732.908C50.5363 734.386 59.8536 735.096 60.9689 735.132C62.0842 735.169 66.4283 737.175 67.6608 737.356C68.8932 737.537 75.4847 738.648 79.9292 737.356C84.3737 736.064 93.2103 736.001 98.8894 737.356C107.554 739.573 116.734 737.356 116.734 737.356C119 737.471 121.246 737.844 123.426 738.468C125.665 739.329 137.732 740.803 143.502 740.692C149.271 740.581 174.73 740.692 174.73 740.692C174.73 740.692 196.73 739.999 203.729 740.692C210.727 741.385 227.15 740.692 227.15 740.692C227.15 740.692 234.923 740.164 238.303 738.468C241.684 736.772 246.11 739.58 246.11 739.58L281.8 740.692C281.8 740.692 292.193 738.868 298.53 739.58C302.284 740.017 306.09 739.638 309.683 738.468C309.683 738.468 315.576 737.899 317.49 738.468C319.404 739.037 326.413 737.356 326.413 737.356H331.989C335.018 736.853 338.002 736.109 340.912 735.132C344.849 733.706 349.834 736.244 349.834 736.244C349.834 736.244 358.298 735.902 362.103 734.02C367.715 733.157 375.486 735.132 375.486 735.132C379.526 736.031 383.715 736.031 387.755 735.132C391.787 734.291 395.904 733.918 400.023 734.02C400.023 734.02 407.034 731.938 411.176 731.796C415.318 731.655 422.329 728.46 422.329 728.46C426.364 727.517 430.563 727.517 434.598 728.46C441.564 730.009 454.288 725.162 450.212 712.893C448.173 705.657 447.792 698.056 449.097 690.654C449.097 690.654 448.598 662.728 443.52 646.175C438.442 629.622 432.367 596.136 432.367 596.136C432.367 596.136 423.683 563.756 421.214 550.546C418.745 537.336 413.717 514.355 410.061 498.283C406.268 482.777 401.424 467.545 395.562 452.693C391.486 440.758 375.486 407.102 375.486 407.102C373.62 401.081 370.307 395.604 365.837 391.147C361.367 386.69 355.874 383.388 349.834 381.527V379.303C349.834 379.303 357.872 372.487 355.411 352.616C354.445 341.577 359.872 317.033 359.872 317.033V233.636C359.872 233.636 358.374 229.79 360.987 226.964C363.242 221.786 374.371 193.605 374.371 193.605L386.639 162.47C386.639 162.47 400.203 130.223 400.023 110.207C399.448 86.3496 390.352 63.4798 374.371 45.7133C352.312 21.5269 312.824 3.28397 253.917 0.12265C192.148 -1.86332 154.625 20.7118 132.349 35.7056C110.073 50.6993 88.8517 86.856 88.8517 86.856C88.8517 86.856 68.3523 127.58 88.8517 159.134C96.5473 174.735 103.351 185.821 103.351 185.821C103.351 185.821 110.698 196.615 111.158 208.06C111.617 219.506 112.714 233.315 113.388 235.859C114.748 240.111 112.273 250.315 112.273 250.315L104.466 315.921C104.466 315.921 101.959 330.344 102.235 340.384C100.252 345.063 98.672 354.87 97.7741 365.959C98.1774 370.824 98.9228 375.655 100.005 380.415C100.005 380.415 100.177 387.563 98.8894 390.423C97.6024 393.283 93.3129 405.99 93.3129 405.99C93.3129 405.99 87.4742 417.386 89.967 428.23C90.4332 433.557 86.621 440.461 86.621 440.461L78.8139 463.813L71.0067 487.164L64.3148 509.403L58.7383 524.971L52.0464 546.098L44.2393 570.561L37.5474 589.465L30.8555 609.48L24.1637 629.495L18.5871 647.287L13.0106 665.078L7.43404 681.758L2.9728 693.99Z" fill="#DDDDDD"/>
</svg>
