<svg width="689" height="577" viewBox="0 0 689 577" fill="none" xmlns="http://www.w3.org/2000/svg">
<path d="M3.97549 168.669L8.47549 57.6689L68.4756 53.6689L166.976 49.1689L278.476 40.6689C441.476 35.1689 481.976 23.6689 559.976 3.66889C653.576 -14.7311 683.642 40.5022 686.976 71.1689C686.976 88.6689 690.576 128.969 686.976 142.169C683.376 155.369 687.476 184.002 686.976 193.669C686.976 220.669 689.176 283.169 681.976 317.169C672.476 364.169 673.976 404.669 674.476 427.669V457.669C672.809 472.669 668.976 499.869 664.976 506.669C660.976 513.469 661.309 528.502 659.476 533.669C655.642 542.502 641.776 563.569 620.976 573.169C600.176 582.769 531.476 571.669 505.476 564.669C479.142 558.669 404.718 538.703 307.476 525.169C210.476 511.669 71.4756 506.169 11.4756 502.169C11.9756 497.669 11.1755 470.469 3.97549 397.669C-3.22451 324.869 0.975492 214.669 3.97549 168.669Z" fill="#D9D9D9"/>
</svg>
