<svg width="286" height="444" viewBox="0 0 286 444" fill="none" xmlns="http://www.w3.org/2000/svg">
<path d="M278.677 90.5C280.277 60.5 281.01 17.6667 281.177 0C257.343 1.83333 194.776 6.7 135.176 11.5C74.7758 18.7 56.0091 24.1667 54.1758 26C48.0091 28 32.8758 30.8 21.6758 26C12.8758 30.4 9.67578 47.1667 9.17578 55L2.67518 112.5C1.50852 141.833 -0.624818 205.4 0.175182 225C0.975182 244.6 3.50852 286.5 4.67518 305C7.00852 330.167 12.5752 386 16.1752 408C19.7752 430 22.6752 436.5 23.6752 437C31.8419 435 55.7752 431.9 86.1752 435.5C164.675 446.5 276.175 442.5 285.175 442.5C283.975 439.3 282.675 409.5 282.175 395C280.675 373.667 277.375 328.1 276.175 316.5C274.975 304.9 273.676 276 273.177 263C271.675 217 273.677 118.5 278.677 90.5Z" fill="#202020"/>
</svg>
