<svg width="1080" height="1080" viewBox="0 0 1080 1080" fill="none" xmlns="http://www.w3.org/2000/svg">
<path d="M353 405L357.5 294L517 287L630 278.5C793 273 838.5 263.1 912.5 241.5C1006.1 223.1 1036.17 279.833 1039.5 310.5C1041.83 328.333 1045.6 367.3 1042 380.5C1038.4 393.7 1036.5 416.333 1036 426C1038.33 454 1041.2 518.5 1034 552.5C1024.5 599.5 1026 641 1026.5 664L1028 693.5C1026.33 708.5 1022 740.2 1018 747C1014 753.8 1009.33 765.833 1007.5 771C1003.67 779.833 990.8 799.9 970 809.5C949.2 819.1 892 807.5 866 800.5C839.667 794.5 762.8 778.4 666 762C569.2 745.6 422 739.5 360.5 738.5C361 734 360.2 706.8 353 634C345.8 561.2 350 451 353 405Z" fill="#D9D9D9"/>
</svg>
