<svg width="1080" height="1080" viewBox="0 0 1080 1080" fill="none" xmlns="http://www.w3.org/2000/svg">
<path d="M493 543C482.5 540.5 476.667 527.667 476.5 521.5L468.5 491C466 482.333 458.6 454.9 449 414.5C434.6 356.1 418.667 307.833 412.5 291C404.667 269.333 384.8 218.3 368 187.5C351.2 156.7 350.667 127 352.5 116C353.833 107 365.6 81.8 402 53C438.4 24.2 524.167 20 562.5 21.5C590.167 25.6667 652.8 39.9 682 63.5C726.5 96 730 119.5 730 141C732 157.8 712.5 200.667 702.5 220C699.167 228.833 690 252.2 680 275C670 297.8 644.833 378.5 633.5 416L618.5 456.5C614.833 464.667 604.9 487.6 594.5 514C588.5 539.2 578.333 543.833 574 543C553 543.667 507.4 544.6 493 543Z" fill="#D9D9D9"/>
</svg>
