<svg width="481" height="791" viewBox="0 0 481 791" fill="none" xmlns="http://www.w3.org/2000/svg">
<path d="M8.23157 768.289C-2.45247 762.738 -0.493733 748.54 1.82114 742.135C2.88939 739.823 5.66702 732.848 8.23157 723.454C10.7961 714.06 20.34 685.025 24.7914 671.681C29.7772 657.803 40.4969 627.807 43.4884 618.84C46.48 609.873 53.9944 584.146 57.3777 572.404C62.0074 559.772 71.6943 532.587 73.4038 524.901C75.1132 517.215 86.5807 484.692 92.1008 469.391C93.5254 465.299 96.0539 455.834 94.7718 450.71C93.4898 445.586 99.5797 429.716 102.785 422.421C104.031 418.507 106.311 409.184 105.456 403.207C104.387 395.734 102.785 382.924 105.99 373.317C108.554 365.631 110.264 348.053 110.798 340.224V329.55L115.072 303.396C115.784 296.991 117.422 283.22 118.277 279.377C119.131 275.534 119.345 266.745 119.345 262.831C121.055 257.28 120.77 251.623 120.414 250.021C119.345 244.506 117.422 231.02 118.277 221.199C117.849 210.951 108.839 196.647 104.387 190.776C87.8272 160.352 80.3484 141.671 86.2246 117.119C90.9256 97.4767 104.209 77.2655 110.264 69.6151C112.044 67.836 117.101 62.4629 123.085 55.204C129.068 47.945 142.672 37.2345 148.726 32.7866C153.89 29.7621 167.958 23.1792 180.244 16.2405C193.065 10.2625 205.174 7.34473 209.625 6.63307C250.652 -2.33387 283.345 -0.305634 294.563 1.82935C313.082 4.85391 355.569 14.8528 377.365 30.6516C405.143 46.0235 419.567 79.7563 423.306 94.7012C425.443 103.241 426.778 109.112 425.443 127.793C424.375 142.738 414.937 163.91 409.951 179.033L399.267 204.653L390.72 227.604L382.707 245.751C384.416 250.021 384.131 258.917 383.775 262.831C383.775 274.04 383.882 299.767 384.309 313.003C384.737 326.24 382.707 340.224 381.638 345.562C380.392 354.991 378.006 375.558 378.433 382.39C380.57 394.346 375.05 403.029 372.023 405.875C389.651 412.814 393.569 420.82 396.062 425.09C400.335 433.808 410.592 455.62 417.43 473.127C426.405 490.634 436.483 528.815 440.401 545.717L454.824 611.368C458.385 624.355 466.79 657.697 471.919 687.16C481 721.319 477.261 762.418 479.397 753.344C481.107 746.085 479.754 757.08 478.863 763.485C479.575 763.129 481 763.378 481 767.221C480.573 774.053 468.713 776.829 462.837 777.363C459.81 777.007 453.328 776.295 451.619 776.295C449.482 776.295 438.798 781.633 435.593 781.099C433.029 780.672 426.333 782.7 423.306 783.768C421.526 783.768 416.682 783.981 411.554 784.835C405.143 785.903 400.87 784.835 397.664 783.768C395.1 782.914 387.337 783.412 383.775 783.768C381.995 784.479 377.258 785.689 372.557 784.835C367.856 783.981 363.119 784.479 361.339 784.835C359.38 785.547 354.821 786.97 352.257 786.97C349.693 786.97 345.847 787.682 344.244 788.038C343.532 788.749 341.253 789.852 337.834 788.571C334.415 787.29 326.438 788.749 322.876 789.639H304.179C294.563 789.995 273.623 790.386 266.785 789.105C259.947 787.824 252.896 788.927 250.225 789.639C246.485 790.35 237.831 791.56 233.13 790.706C220.737 789.852 198.407 790.35 188.791 790.706C173.834 790.884 142.423 790.706 136.44 788.571C130.029 785.903 120.414 786.97 115.606 788.038C111.759 788.892 101.182 787.682 96.3745 786.97C92.2789 786.614 92.635 786.116 84.0878 786.97C75.5406 787.824 72.6915 787.326 72.3354 786.97C71.267 786.081 68.4891 784.301 65.9249 784.301C63.3608 784.301 54.1725 782.522 49.8989 781.633L25.8598 776.295C24.4354 775.939 18.9156 773.84 8.23157 768.289Z" fill="#D9D9D9"/>
</svg>
