<svg width="451" height="741" viewBox="0 0 451 741" fill="none" xmlns="http://www.w3.org/2000/svg">
<path d="M7.70454 719.714C-2.29546 714.514 -0.462122 701.214 1.70454 695.214C2.7044 693.047 5.30419 686.514 7.70454 677.714C10.1049 668.914 19.0377 641.714 23.2041 629.214C27.8708 616.214 37.9041 588.114 40.7041 579.714C43.5041 571.314 50.5374 547.214 53.7041 536.214C58.0374 524.38 67.1041 498.914 68.7041 491.714C70.3041 484.514 81.0374 454.047 86.2041 439.714C87.5374 435.88 89.9041 427.014 88.7041 422.214C87.5041 417.414 93.2041 402.547 96.2041 395.714C97.3708 392.047 99.5041 383.314 98.7041 377.714C97.7041 370.714 96.2041 358.714 99.2041 349.714C101.604 342.514 103.204 326.047 103.704 318.714V308.714L107.704 284.214C108.371 278.214 109.904 265.314 110.704 261.714C111.504 258.114 111.704 249.88 111.704 246.214C113.304 241.014 113.037 235.714 112.704 234.214C111.704 229.047 109.904 216.414 110.704 207.214C110.304 197.614 101.871 184.214 97.7041 178.714C82.2041 150.214 75.2041 132.714 80.7041 109.714C85.1041 91.3137 97.5374 72.3803 103.204 65.2137C104.871 63.547 109.604 58.5137 115.204 51.7137C120.804 44.9137 133.537 34.8804 139.204 30.7137C144.037 27.8804 157.204 21.7137 168.704 15.2137C180.704 9.61368 192.037 6.88035 196.204 6.21369C234.604 -2.18631 265.204 -0.286311 275.704 1.71369C293.037 4.54702 332.804 13.9137 353.204 28.7137C379.204 43.1137 392.704 74.7137 396.204 88.7137C398.204 96.7137 399.454 102.214 398.204 119.714C397.204 133.714 388.371 153.547 383.704 167.714L373.704 191.714L365.704 213.214L358.204 230.214C359.804 234.214 359.537 242.547 359.204 246.214C359.204 256.714 359.304 280.814 359.704 293.214C360.104 305.614 358.204 318.714 357.204 323.714C356.037 332.547 353.804 351.814 354.204 358.214C356.204 369.414 351.037 377.547 348.204 380.214C364.704 386.714 368.371 394.214 370.704 398.214C374.704 406.38 384.304 426.814 390.704 443.214C399.104 459.614 408.537 495.38 412.204 511.214L425.704 572.714C429.037 584.88 436.904 616.114 441.704 643.714C450.204 675.714 446.704 714.214 448.704 705.714C450.304 698.914 449.037 709.214 448.204 715.214C448.871 714.88 450.204 715.114 450.204 718.714C449.804 725.114 438.704 727.714 433.204 728.214C430.371 727.88 424.304 727.214 422.704 727.214C420.704 727.214 410.704 732.214 407.704 731.714C405.304 731.314 399.037 733.214 396.204 734.214C394.537 734.214 390.004 734.414 385.204 735.214C379.204 736.214 375.204 735.214 372.204 734.214C369.804 733.414 362.537 733.88 359.204 734.214C357.537 734.88 353.104 736.014 348.704 735.214C344.304 734.414 339.871 734.88 338.204 735.214C336.371 735.88 332.104 737.214 329.704 737.214C327.304 737.214 323.704 737.88 322.204 738.214C321.537 738.88 319.404 739.914 316.204 738.714C313.004 737.514 305.537 738.88 302.204 739.714H284.704C275.704 740.047 256.104 740.414 249.704 739.214C243.304 738.014 236.704 739.047 234.204 739.714C230.704 740.38 222.604 741.514 218.204 740.714C206.604 739.914 185.704 740.38 176.704 740.714C162.704 740.88 133.304 740.714 127.704 738.714C121.704 736.214 112.704 737.214 108.204 738.214C104.604 739.014 94.7041 737.88 90.2041 737.214C86.3708 736.88 86.7041 736.414 78.7041 737.214C70.7041 738.014 68.0374 737.547 67.7041 737.214C66.7041 736.38 64.1041 734.714 61.7041 734.714C59.3041 734.714 50.7041 733.047 46.7041 732.214L24.2041 727.214C22.8709 726.88 17.7045 724.914 7.70454 719.714Z" fill="#D9D9D9"/>
</svg>
