<svg width="366" height="423" viewBox="0 0 366 423" fill="none" xmlns="http://www.w3.org/2000/svg">
<path fill-rule="evenodd" clip-rule="evenodd" d="M100.633 415.924C100.633 415.924 104.222 419.399 111.655 419.855C119.087 420.311 117.165 420.641 117.165 420.641C118.454 420.99 119.813 420.99 121.102 420.641C123.45 420.081 126.612 421.428 126.612 421.428C128.689 421.868 130.834 421.868 132.91 421.428C136.17 420.678 136.847 421.428 136.847 421.428C136.847 421.428 138.047 422.97 141.57 422.214C145.093 421.457 147.081 422.214 147.081 422.214C148.641 422.517 150.245 422.517 151.804 422.214C153.63 421.922 155.49 421.922 157.315 422.214C157.315 422.214 159.069 423.157 162.826 422.214C164.444 421.932 166.11 422.209 167.549 423C169.401 422.853 171.242 422.59 173.06 422.214C174.353 421.895 175.704 421.895 176.997 422.214H186.444C188.57 422.266 190.693 422.001 192.742 421.428C195.235 420.541 199.04 421.428 199.04 421.428H215.572C215.572 421.428 225.238 422.135 228.955 414.351C232.673 406.568 239.189 389.904 243.913 369.535C248.636 349.167 252.573 332.582 252.573 332.582L261.232 302.705L273.041 257.889C273.041 257.889 279.299 224.123 284.85 205.21C287.356 192.737 290.509 180.403 294.297 168.257C294.297 168.257 307.424 129.199 318.702 107.716C324.921 92.5503 337.596 70.7627 337.596 70.7627L354.915 43.2441L363.575 29.0917C363.575 29.0917 370.745 21.6342 360.426 14.9393C349.361 5.47925 314.766 3.93192 314.766 3.93192L244.7 0.0006987H188.805C188.805 0.0006987 149.303 -0.217877 111.655 7.0769C73.0714 12.3447 56.547 16.5118 56.547 16.5118C56.547 16.5118 25.8946 23.0376 14.0354 31.4505C6.45262 38.4913 2.22666 42.4579 2.22666 42.4579C2.22666 42.4579 -2.20793 47.0637 1.4394 55.824C5.08674 64.5844 10.0992 78.6251 10.0992 78.6251L18.7589 100.64L25.8442 119.51L32.1422 137.593L38.4402 161.967L43.951 184.768L48.6745 207.569L53.398 231.943L56.547 251.599L60.4833 273.614L65.2068 296.415L71.5048 327.078L77.8028 349.879L84.8881 373.467L91.1861 391.55L95.9096 404.916L100.633 415.924Z" fill="#D1D1D1"/>
</svg>
